<?xml version="1.0" standalone="no"?>
<!DOCTYPE svg PUBLIC "-//W3C//DTD SVG 20010904//EN"
 "http://www.w3.org/TR/2001/REC-SVG-20010904/DTD/svg10.dtd">
<svg version="1.0" xmlns="http://www.w3.org/2000/svg"
 width="624.000000pt" height="624.000000pt" viewBox="0 0 624.000000 624.000000"
 preserveAspectRatio="xMidYMid meet">
<metadata>
Created by potrace 1.14, written by Peter Selinger 2001-2017
</metadata>
<g transform="translate(0.000000,624.000000) scale(0.100000,-0.100000)"
fill="#000000" stroke="none">
<path d="M2165 6233 c-141 -18 -304 -60 -430 -110 -263 -103 -410 -194 -585
-360 -217 -206 -350 -399 -455 -659 -92 -229 -152 -592 -126 -772 6 -42 16
-120 22 -172 40 -340 215 -703 466 -970 315 -335 747 -539 1197 -567 l106 -6
0 526 0 526 -37 10 c-21 5 -85 21 -142 35 -122 31 -194 67 -286 143 -188 155
-292 415 -264 660 38 337 315 618 643 653 47 4 82 13 87 21 10 16 12 1008 3
1033 -5 13 -22 16 -88 15 -44 -1 -94 -4 -111 -6z"/>
<path d="M2582 3574 l3 -2669 22 -78 c53 -184 123 -317 241 -454 181 -210 488
-364 732 -367 l85 -1 0 2660 0 2660 -28 88 c-73 235 -146 364 -287 505 -180
182 -441 304 -678 319 l-92 6 2 -2669z"/>
<path d="M3882 3095 l3 -529 110 -22 c138 -29 182 -45 272 -101 179 -109 307
-300 344 -508 16 -93 5 -268 -22 -349 -95 -283 -332 -483 -613 -517 l-96 -12
0 -524 c0 -457 2 -524 15 -529 8 -4 80 -1 159 5 223 17 420 74 633 182 165 84
243 135 356 235 253 223 451 520 552 828 97 295 110 684 35 976 -78 301 -195
531 -382 755 -314 376 -753 593 -1276 631 l-92 7 2 -528z"/>
</g>
</svg>
